<svg class="svg-icon" style="width: 1em; height: 1em;vertical-align: middle;fill: currentColor;overflow: hidden;" viewBox="0 0 1024 1024" version="1.1" xmlns="http://www.w3.org/2000/svg"><path d="M577 952h311V583H577v369z m218-312.2h72V754h-72V639.8z m-190 0h72V754h-72V639.8zM135 952h149V769h72v183h149V200H135v752z m244-697.2h72V369h-72V254.8z m0 193h72V562h-72V447.8z m-190-193h72V369h-72V254.8z m0 193h72V562h-72V447.8z" fill="#FFEB3B" /><path d="M924 511H577V164c0-19.9-16.1-36-36-36H99c-19.9 0-36 16.1-36 36v860h897V547c0-19.9-16.1-36-36-36zM505 952H356V769h-72v183H135V200h370v752z m383 0H577V583h311v369z" fill="#FF9800" /><path d="M189 254.8h72V369h-72z" fill="#FF5722" /><path d="M379 254.8h72V369h-72zM189 447.8h72V562h-72zM379 447.8h72V562h-72z" fill="#F9CE1D" /><path d="M605 639.8h72V754h-72z" fill="#FF5722" /><path d="M795 639.8h72V754h-72z" fill="#F9CE1D" /></svg>