<svg id="Layer_1" data-name="Layer 1" xmlns="http://www.w3.org/2000/svg" viewBox="0 0 65.43 30.14"><defs><style>.cls-1{fill:#9c27b0;}</style></defs><title>minibus-C</title><g id="_Group_" data-name="&lt;Group&gt;"><path id="_Path_" data-name="&lt;Path&gt;" class="cls-1" d="M0,20.24a1.85,1.85,0,0,0,1.52,1.82V18.42A1.85,1.85,0,0,0,0,20.24Z"/></g><path class="cls-1" d="M61.43,0h-44a4,4,0,0,0-3.84,2.88l-.16-.24.14.33L10.72,9.19,3,16.07A2.26,2.26,0,0,0,1.92,18v4.8a2.26,2.26,0,0,0,2.26,2.26h6.64a5.59,5.59,0,0,1,11.17,0h25.4s0,0,0-.06a5.59,5.59,0,1,1,11.18,0s0,.07,0,.11h2.86a4,4,0,0,0,4-4V4A4,4,0,0,0,61.43,0ZM24.74,8.91a.76.76,0,0,1-.76.76H15.34a1.07,1.07,0,0,1-.93-1.59l1.27-4.32L16,3V3a1.74,1.74,0,0,1,1.41-.73H24a.76.76,0,0,1,.76.76Zm13.14,0a.76.76,0,0,1-.76.76H27.91a.76.76,0,0,1-.76-.76V3a.76.76,0,0,1,.76-.76h9.21a.76.76,0,0,1,.76.76Zm24.23,0a.76.76,0,0,1-.76.76H41.05a.76.76,0,0,1-.76-.76V3a.76.76,0,0,1,.76-.76H61.36a.76.76,0,0,1,.76.76Z"/><path id="_Compound_Path_" data-name="&lt;Compound Path&gt;" class="cls-1" d="M16.38,20a5.07,5.07,0,1,0,5.07,5.07A5.07,5.07,0,0,0,16.38,20Zm0,8.35a3.28,3.28,0,1,1,3.28-3.28A3.28,3.28,0,0,1,16.38,28.36Z"/><circle id="_Path_2" data-name="&lt;Path&gt;" class="cls-1" cx="16.38" cy="25.07" r="1.5"/><path id="_Compound_Path_2" data-name="&lt;Compound Path&gt;" class="cls-1" d="M53,20A5.07,5.07,0,1,0,58,25.07,5.07,5.07,0,0,0,53,20Zm0,8.35a3.28,3.28,0,1,1,3.28-3.28A3.28,3.28,0,0,1,53,28.36Z"/><circle id="_Path_3" data-name="&lt;Path&gt;" class="cls-1" cx="52.96" cy="25.07" r="1.5"/></svg>