<?xml version="1.0" ?><svg id="Travel" style="enable-background:new 0 0 48 48;" version="1.1" viewBox="0 0 48 48" xml:space="preserve" xmlns="http://www.w3.org/2000/svg" xmlns:xlink="http://www.w3.org/1999/xlink"><circle cx="16" cy="7" r="6" style="fill:#57B9EA;"/><polygon points="10,19 10,47 16,47 16,30 21,47 27,47 22,30 22,18 36,18 36,13 8,13 1,21 6,29 10,26 7,22 " style="fill:#57B9EA;"/><path d="M45,26H33c-1.10457,0-2,0.89543-2,2v15c0,1.10457,0.89543,2,2,2h12c1.10457,0,2-0.89543,2-2V28  C47,26.89543,46.10457,26,45,26z" style="fill:#E55757;"/><path d="M45,25h-2v-8h1c0.55225,0,1-0.44775,1-1s-0.44775-1-1-1h-7v-2c0-0.55225-0.44775-1-1-1H20.88965  C22.18976,10.72833,23,8.95795,23,7c0-3.85986-3.14014-7-7-7S9,3.14014,9,7c0,1.95795,0.81024,3.72833,2.11035,5H8  c-0.28857,0-0.5625,0.12451-0.75244,0.34131l-7,8c-0.29053,0.33203-0.3291,0.81494-0.0957,1.18848l5,8  c0.14844,0.23779,0.38965,0.40186,0.66504,0.45312c0.27197,0.05127,0.55859-0.01562,0.7832-0.18311L9,28v19c0,0.55225,0.44775,1,1,1  h6c0.55225,0,1-0.44775,1-1V36.94385l3.04053,10.33838C20.16602,47.70752,20.55615,48,21,48h6  c0.31494,0,0.61182-0.14844,0.80078-0.40088c0.18848-0.25244,0.24756-0.5791,0.15869-0.88135L23,29.85596V19h12v6h-2  c-1.6543,0-3,1.3457-3,3v15c0,1.6543,1.3457,3,3,3h1v1c0,0.55225,0.44775,1,1,1s1-0.44775,1-1v-1h6v1c0,0.55225,0.44775,1,1,1  s1-0.44775,1-1v-1h1c1.6543,0,3-1.3457,3-3V28C48,26.3457,46.6543,25,45,25z M11,7c0-2.75684,2.24316-5,5-5s5,2.24316,5,5  s-2.24316,5-5,5S11,9.75684,11,7z M9,23l-0.67969-0.90625L9,21.41406V23z M22,17c-0.55225,0-1,0.44775-1,1v12  c0,0.0957,0.01367,0.19043,0.04053,0.28223L25.66357,46h-3.91553l-4.78857-16.28223  c-0.14014-0.47705-0.60596-0.77832-1.10205-0.70752C15.36523,29.08105,15,29.50293,15,30v16h-4V26.01025  c0-0.00732,0-0.01465,0-0.02197V19c0-0.4043-0.24365-0.76904-0.61719-0.92383c-0.37549-0.15576-0.80371-0.06982-1.08984,0.2168l-3,3  c-0.35205,0.35205-0.3916,0.90869-0.09277,1.30713l2.3999,3.19971L6.271,27.54688l-4.0293-6.44727L8.45361,14H35v2v1H22z M37,18v-1  h4v8h-4V18z M46,43c0,0.55127-0.44873,1-1,1H33c-0.55127,0-1-0.44873-1-1V28c0-0.55127,0.44873-1,1-1h12c0.55127,0,1,0.44873,1,1V43  z" style="fill:#0A0B0F;"/><path d="M35,29c-0.55225,0-1,0.44775-1,1v11c0,0.55225,0.44775,1,1,1s1-0.44775,1-1V30  C36,29.44775,35.55225,29,35,29z" style="fill:#0A0B0F;"/><path d="M39,29c-0.55225,0-1,0.44775-1,1v11c0,0.55225,0.44775,1,1,1s1-0.44775,1-1V30  C40,29.44775,39.55225,29,39,29z" style="fill:#0A0B0F;"/><path d="M43,29c-0.55225,0-1,0.44775-1,1v11c0,0.55225,0.44775,1,1,1s1-0.44775,1-1V30  C44,29.44775,43.55225,29,43,29z" style="fill:#0A0B0F;"/><path d="M16,16c-0.55225,0-1,0.44775-1,1v1c0,0.55225,0.44775,1,1,1s1-0.44775,1-1v-1  C17,16.44775,16.55225,16,16,16z" style="fill:#0A0B0F;"/><path d="M16,21c-0.55225,0-1,0.44775-1,1v1c0,0.55225,0.44775,1,1,1s1-0.44775,1-1v-1  C17,21.44775,16.55225,21,16,21z" style="fill:#0A0B0F;"/></svg>